<svg xmlns="http://www.w3.org/2000/svg" width="43" height="41" viewBox="0 0 43 41" fill="none">
  <path d="M0.976664 35.7339C-0.227628 36.8719 -0.227628 38.7168 0.976663 39.8547C2.18096 40.9926 4.1335 40.9926 5.33779 39.8547L0.976664 35.7339ZM42.5837 3.45474C42.5837 1.84548 41.2031 0.540926 39.4999 0.540926L11.7459 0.540924C10.0428 0.540924 8.66213 1.84548 8.66213 3.45473C8.66213 5.06399 10.0428 6.36854 11.7459 6.36854L36.4162 6.36854L36.4162 29.679C36.4162 31.2883 37.7968 32.5928 39.4999 32.5928C41.2031 32.5928 42.5837 31.2883 42.5837 29.679L42.5837 3.45474ZM3.15723 37.7943L5.33779 39.8547L41.6805 5.51511L39.4999 3.45473L37.3194 1.39436L0.976664 35.7339L3.15723 37.7943Z" fill="#F9F6EE" fill-opacity="0.8"/>
</svg>