<svg xmlns="http://www.w3.org/2000/svg" width="48" height="47" viewBox="0 0 48 47" fill="none">
  <g clip-path="url(#clip0_177_217)">
    <path fill-rule="evenodd" clip-rule="evenodd" d="M24.1237 0.112732C11.2578 0.112732 0.836914 10.5336 0.836914 23.3995C0.836914 33.7039 7.50276 42.4074 16.7593 45.4929C17.9236 45.6966 18.3602 44.998 18.3602 44.3868C18.3602 43.8337 18.3311 41.9999 18.3311 40.0496C12.4803 41.1266 10.9667 38.6233 10.5009 37.3134C10.239 36.6439 9.10373 34.5772 8.11404 34.0241C7.299 33.5875 6.13466 32.5105 8.08493 32.4814C9.91877 32.4523 11.2286 34.1697 11.6653 34.8683C13.7611 38.3904 17.1086 37.4007 18.4476 36.7894C18.6513 35.2758 19.2626 34.257 19.9321 33.6748C14.7508 33.0927 9.3366 31.0842 9.3366 22.177C9.3366 19.6445 10.239 17.5487 11.7235 15.9186C11.4906 15.3365 10.6756 12.9496 11.9564 9.74765C11.9564 9.74765 13.9066 9.13637 18.3602 12.1345C20.2232 11.6106 22.2026 11.3486 24.1819 11.3486C26.1613 11.3486 28.1407 11.6106 30.0036 12.1345C34.4572 9.10726 36.4075 9.74765 36.4075 9.74765C37.6883 12.9496 36.8732 15.3365 36.6404 15.9186C38.1249 17.5487 39.0273 19.6154 39.0273 22.177C39.0273 31.1133 33.584 33.0927 28.4027 33.6748C29.2468 34.4025 29.9745 35.7998 29.9745 37.9829C29.9745 41.0975 29.9454 43.6008 29.9454 44.3868C29.9454 44.998 30.382 45.7258 31.5464 45.4929C40.7447 42.4074 47.4105 33.6748 47.4105 23.3995C47.4105 10.5336 36.9897 0.112732 24.1237 0.112732Z" fill="#B38E39"/>
  </g>
  <defs>
    <clipPath id="clip0_177_217">
      <rect width="46.5736" height="46.5736" fill="white" transform="translate(0.836914 0.112732)"/>
    </clipPath>
  </defs>
</svg>