<svg xmlns="http://www.w3.org/2000/svg" width="48" height="47" viewBox="0 0 48 47" fill="none">
  <g clip-path="url(#clip0_177_219)">
    <path d="M11.3178 15.4547H1.88393C1.46524 15.4547 1.12598 15.788 1.12598 16.1991V45.9678C1.12598 46.379 1.46524 46.7123 1.88393 46.7123H11.3178C11.7365 46.7123 12.0758 46.379 12.0758 45.9678V16.1991C12.0758 15.788 11.7365 15.4547 11.3178 15.4547Z" fill="#B38E39"/>
    <path d="M6.60435 0.656067C3.17174 0.656067 0.37915 3.39607 0.37915 6.76397C0.37915 10.1334 3.17174 12.8744 6.60435 12.8744C10.0342 12.8744 12.8245 10.1332 12.8245 6.76397C12.8247 3.39607 10.0342 0.656067 6.60435 0.656067Z" fill="#B38E39"/>
    <path d="M35.3137 14.7148C31.5247 14.7148 28.7237 16.3147 27.0249 18.1326V16.1991C27.0249 15.788 26.6856 15.4547 26.2669 15.4547H17.2323C16.8136 15.4547 16.4744 15.788 16.4744 16.1991V45.9678C16.4744 46.379 16.8136 46.7123 17.2323 46.7123H26.6456C27.0643 46.7123 27.4036 46.379 27.4036 45.9678V31.2392C27.4036 26.276 28.776 24.3425 32.2984 24.3425C36.1345 24.3425 36.4394 27.4422 36.4394 31.4946V45.9679C36.4394 46.3792 36.7786 46.7124 37.1973 46.7124H46.6141C47.0328 46.7124 47.3721 46.3792 47.3721 45.9679V29.6393C47.3721 22.2592 45.9394 14.7148 35.3137 14.7148Z" fill="#B38E39"/>
  </g>
  <defs>
    <clipPath id="clip0_177_219">
      <rect width="46.9929" height="46.158" fill="white" transform="translate(0.37915 0.605164)"/>
    </clipPath>
  </defs>
</svg>