<svg xmlns="http://www.w3.org/2000/svg" width="51" height="51" viewBox="0 0 51 51" fill="none">
  <g clip-path="url(#clip0_177_224)">
    <path d="M27.1408 25.4541C26.5149 25.6631 25.8473 25.7791 25.1523 25.7791C24.4572 25.7791 23.7895 25.6631 23.1637 25.4541C18.6174 26.2007 16.238 29.5421 16.238 33.5969H25.1523H34.0664C34.0664 29.5421 31.6875 26.2007 27.1408 25.4541Z" fill="#B38E39"/>
    <path d="M25.1523 24.3345C27.8473 24.3345 30.0312 22.1494 30.0312 19.4548V18.0707C30.0312 15.3761 27.8473 13.1917 25.1523 13.1917C22.4572 13.1917 20.2733 15.3761 20.2733 18.0707V19.4548C20.2733 22.1494 22.4572 24.3345 25.1523 24.3345Z" fill="#B38E39"/>
    <path d="M37.1782 0.676819H13.1245C8.47254 0.676819 4.68652 4.46362 4.68652 9.1165V42.5435C4.68652 47.1964 8.47254 50.9815 13.1245 50.9815H33.3343H34.6288L35.5443 50.0676L44.7042 40.9078L45.618 39.993V38.6987V9.1165C45.618 4.46362 41.832 0.676819 37.1782 0.676819ZM42.4933 38.6986H37.7628C35.3181 38.6986 33.3342 40.6816 33.3342 43.1271V47.8568H13.1245C10.1902 47.8568 7.81131 45.477 7.81131 42.5435V9.1165C7.81131 6.18135 10.1902 3.8015 13.1245 3.8015H37.1782C40.1136 3.8015 42.4932 6.18135 42.4932 9.1165V38.6986H42.4933Z" fill="#B38E39"/>
  </g>
  <defs>
    <clipPath id="clip0_177_224">
      <rect width="50.3046" height="50.3046" fill="white" transform="translate(0 0.676819)"/>
    </clipPath>
  </defs>
</svg>