<svg xmlns="http://www.w3.org/2000/svg" width="45" height="45" viewBox="0 0 45 45" fill="none">
  <path d="M42.3794 33.9805C41.3888 33.2826 40.2364 32.9276 39.0807 32.9048C35.0498 30.257 32.4012 28.2636 30.8487 26.7092L27.2355 23.0918C27.6189 22.9662 27.9578 22.8861 28.1532 22.8861C28.5264 22.8861 28.7507 22.737 28.9005 22.4389L44.1015 7.29389C45.2995 6.09452 45.2995 4.14547 44.1015 2.9461L42.0799 0.92212C40.8819 -0.277249 38.9351 -0.277249 37.7371 0.92212L22.3128 16.2894C22.0884 16.514 22.0322 16.8228 22.144 17.0897C22.1172 17.255 22.0632 17.4629 21.9905 17.6909L18.2695 13.9656C15.5061 11.1989 13.5624 8.58137 12.0664 5.66671C11.9879 4.19186 11.3968 2.81196 10.3328 1.74674C9.05988 0.472346 7.26287 -0.127383 5.46587 0.0225714C5.24124 0.0975045 5.01662 0.247459 4.94177 0.397413C4.79199 0.6223 4.79199 0.92212 4.94177 1.14701L7.03825 4.89516C6.589 5.86964 5.54071 6.46937 4.49252 6.39443L2.3211 2.79624C2.24626 2.57135 1.9467 2.4214 1.72207 2.4214C1.49745 2.34646 1.27282 2.49633 1.12304 2.72122C-0.673965 5.41986 -8.76963e-05 9.01806 2.69542 10.8921C3.62411 11.5562 4.67038 11.9255 5.72998 12.0012C5.74182 12.0062 5.75297 12.0124 5.76525 12.0165C8.68539 13.5158 11.3061 15.4648 14.0016 18.1634L17.2212 21.3868L16.0232 22.5861C15.7237 22.886 15.7237 23.3357 16.0232 23.6356L17.1089 24.7226L4.04327 37.8036L0.748724 40.0525C0.598944 40.2024 0.449252 40.3523 0.449252 40.5772L0 44.1754C0 44.4003 0.074846 44.6252 0.224626 44.7751C0.374406 44.9251 0.524098 45 0.748724 45C0.82357 45 0.82357 45 0.82357 45L4.41758 44.5502C4.64221 44.5502 4.79199 44.4003 4.94168 44.2504L7.07633 41.116C7.1166 41.09 7.15442 41.0607 7.18794 41.0271L20.2552 27.8727L21.3394 28.9582C21.4892 29.1081 21.6388 29.1831 21.8635 29.1831C22.0881 29.1831 22.3127 29.0331 22.4625 28.9582L23.6019 27.7751L26.7304 30.9072C28.3013 32.4799 30.3206 35.2499 33.0124 39.2916C33.1089 40.7343 33.6986 42.0814 34.7421 43.1261C35.8652 44.2505 37.3627 44.8502 38.9351 44.8502C39.1597 44.8502 39.3844 44.8502 39.5342 44.8502C39.7588 44.8502 39.9834 44.7003 40.1332 44.4754C40.283 44.2505 40.283 43.9507 40.1332 43.7258L37.9618 40.0527C38.4859 39.0782 39.4593 38.4785 40.5824 38.5534L42.6789 42.1516C42.7538 42.3765 43.0533 42.5264 43.2779 42.5264C43.5774 42.4515 43.802 42.3765 43.9518 42.1516C45.7488 39.4528 45 35.8546 42.3794 33.9805ZM25.5325 22.0615C25.0084 22.2864 24.3345 22.6612 23.8853 23.111C23.522 23.4747 23.3183 23.962 23.2124 24.4614L20.441 21.6868C20.9651 21.6118 21.4892 21.3869 21.8636 21.0121C22.3877 20.5623 22.9118 19.4379 23.2862 18.3884L26.5807 21.6868C26.334 21.775 26.0833 21.876 25.838 21.9842C25.7382 21.9856 25.6353 22.01 25.5325 22.0615ZM38.7854 1.97162C39.3845 1.37189 40.3578 1.37189 40.9568 1.97162L42.9785 3.99561C43.5775 4.59534 43.5775 5.56982 42.9785 6.16955L28.1158 20.9747L23.9227 16.7768L38.7854 1.97162ZM1.79701 4.7452L3.36939 7.44385C3.51917 7.66873 3.74379 7.81869 3.96842 7.81869H4.34283C6.06499 7.89362 7.63737 6.99407 8.38609 5.49488L8.53587 5.12004C8.68565 4.89516 8.68565 4.67027 8.53587 4.44538L6.88856 1.59678C7.78706 1.74674 8.61072 2.19651 9.28459 2.87117C10.0566 3.70844 10.5508 4.76734 10.5801 5.90478C10.5656 5.96249 10.5574 6.0246 10.5574 6.09461C10.5574 6.44178 10.5156 6.78043 10.4381 7.10687C10.1556 8.1923 9.47833 9.13867 8.53578 9.76783C7.03825 10.7423 5.01661 10.7423 3.51917 9.69289C1.94679 8.56828 1.27291 6.5443 1.79701 4.7452ZM8.23631 11.6418C8.61072 11.4918 9.05997 11.2669 9.43429 11.042C10.5574 10.2924 11.3061 9.31788 11.7554 8.11851C13.178 10.5173 14.975 12.7662 17.2213 15.0151L21.371 19.1697C21.2076 19.4782 21.0397 19.738 20.8902 19.8877C20.441 20.2625 19.3178 20.1875 18.7937 20.1875C18.6129 20.1875 18.4326 20.2432 18.2846 20.3525L15.1248 17.1889C12.8037 14.8651 10.6323 13.066 8.23631 11.6418ZM3.96842 43.0509L1.57238 43.3508L1.87185 41.027L4.37292 39.3331L5.65969 40.6214L3.96842 43.0509ZM6.589 39.4528L5.54071 38.4033L18.1946 25.8096L19.2429 26.8591L6.589 39.4528ZM21.8636 27.3088L17.6705 23.1109L18.7188 22.0614L22.8855 26.233C22.8607 26.2703 22.8398 26.309 22.8225 26.3487L21.8636 27.3088ZM24.6938 26.769C24.803 26.621 24.8585 26.4405 24.8585 26.2593C24.8305 26.0345 24.8024 25.7463 24.8019 25.4503C24.8012 24.9568 24.8772 24.4415 25.158 24.1604C25.256 24.0459 25.4255 23.9207 25.6366 23.7949C25.6383 23.7938 25.64 23.7929 25.6417 23.7918C25.7262 23.7417 25.8172 23.6915 25.913 23.6419L30.0249 27.7586C31.3699 29.18 33.6845 30.9747 37.0426 33.2171C36.5526 33.3822 36.0806 33.6118 35.6406 33.9056C34.5376 34.6786 33.7205 35.7368 33.3059 36.9591C32.8742 36.3255 32.4593 35.7282 32.0603 35.1662L33.0948 34.1305C33.3942 33.8307 33.3942 33.3809 33.0948 33.081C32.7953 32.7812 32.346 32.7812 32.0465 33.081L31.18 33.9485C30.8685 33.5259 30.5677 33.1274 30.2775 32.753L30.9982 32.0316C31.2977 31.7317 31.2977 31.282 30.9982 30.9821C30.6987 30.6822 30.2495 30.6822 29.9499 30.9821L29.3444 31.5883C28.8071 30.9419 28.3108 30.3905 27.8534 29.9326L24.6938 26.769ZM43.203 40.1274L41.6306 37.4288C41.4809 37.2039 41.2562 37.0539 41.0316 37.0539H40.6572C38.935 36.904 37.3627 37.8785 36.6139 39.3777L36.4641 39.7526C36.3144 39.9775 36.3144 40.2024 36.4641 40.4272L38.1114 43.2758C37.2129 43.1259 36.3892 42.6761 35.7153 42.0014C34.958 41.18 34.4685 40.1452 34.4224 39.0325C34.4352 38.9777 34.4424 38.9188 34.4424 38.853C34.4424 38.0105 34.679 37.2153 35.0854 36.534C35.0859 36.5331 35.0864 36.5322 35.0869 36.5314C35.0888 36.5282 35.091 36.5251 35.0931 36.5218C35.4389 35.9628 35.905 35.4781 36.4641 35.105C36.5535 35.0422 36.6441 34.9842 36.7356 34.9299C37.3204 34.6227 37.9913 34.4303 38.7103 34.4303C38.8375 34.4303 38.9402 34.4054 39.033 34.3574C39.8986 34.3783 40.7592 34.6743 41.4807 35.18C43.0533 36.3043 43.7272 38.3283 43.203 40.1274Z" fill="#F9F6EE" fill-opacity="0.8"/>
  <path d="M27.1797 17.7887C27.3295 17.9387 27.4792 18.0136 27.7038 18.0136C27.9284 18.0136 28.0782 17.9387 28.2279 17.7887L40.9567 5.04509C41.2562 4.74527 41.2562 4.2955 40.9567 3.99559C40.6572 3.69568 40.208 3.69577 39.9084 3.99559L27.1797 16.7392C26.8802 17.0391 26.8802 17.4889 27.1797 17.7887Z" fill="#F9F6EE" fill-opacity="0.8"/>
</svg>