<svg xmlns="http://www.w3.org/2000/svg" width="75" height="75" viewBox="0 0 75 75" fill="none">
  <path d="M37.5 37.5C34.0625 37.5 31.1198 36.276 28.6719 33.8281C26.224 31.3802 25 28.4375 25 25C25 21.5625 26.224 18.6198 28.6719 16.1719C31.1198 13.724 34.0625 12.5 37.5 12.5C40.9375 12.5 43.8802 13.724 46.3281 16.1719C48.776 18.6198 50 21.5625 50 25C50 28.4375 48.776 31.3802 46.3281 33.8281C43.8802 36.276 40.9375 37.5 37.5 37.5ZM12.5 62.5V53.75C12.5 51.9792 12.9557 50.3516 13.8672 48.8672C14.7786 47.3828 15.9896 46.25 17.5 45.4688C20.7292 43.8542 24.0104 42.6432 27.3438 41.8359C30.6771 41.0286 34.0625 40.625 37.5 40.625C40.9375 40.625 44.3229 41.0286 47.6562 41.8359C50.9896 42.6432 54.2708 43.8542 57.5 45.4688C59.0104 46.25 60.2214 47.3828 61.1328 48.8672C62.0443 50.3516 62.5 51.9792 62.5 53.75V62.5H12.5ZM18.75 56.25H56.25V53.75C56.25 53.1771 56.1068 52.6562 55.8203 52.1875C55.5339 51.7188 55.1562 51.3542 54.6875 51.0938C51.875 49.6875 49.0365 48.6328 46.1719 47.9297C43.3073 47.2266 40.4167 46.875 37.5 46.875C34.5833 46.875 31.6927 47.2266 28.8281 47.9297C25.9635 48.6328 23.125 49.6875 20.3125 51.0938C19.8438 51.3542 19.4661 51.7188 19.1797 52.1875C18.8932 52.6562 18.75 53.1771 18.75 53.75V56.25ZM37.5 31.25C39.2188 31.25 40.6901 30.638 41.9141 29.4141C43.138 28.1901 43.75 26.7188 43.75 25C43.75 23.2812 43.138 21.8099 41.9141 20.5859C40.6901 19.362 39.2188 18.75 37.5 18.75C35.7812 18.75 34.3099 19.362 33.0859 20.5859C31.862 21.8099 31.25 23.2812 31.25 25C31.25 26.7188 31.862 28.1901 33.0859 29.4141C34.3099 30.638 35.7812 31.25 37.5 31.25Z" fill="#F9F6EE" fill-opacity="0.8"/>
</svg>