<svg xmlns="http://www.w3.org/2000/svg" width="53" height="51" viewBox="0 0 53 51" fill="none">
  <path d="M26.5 24.3352C29.6338 24.3352 32.6393 23.0903 34.8552 20.8743C37.0711 18.6584 38.316 15.6529 38.316 12.5191C38.316 9.38534 37.0711 6.37989 34.8552 4.16396C32.6393 1.94802 29.6338 0.703125 26.5 0.703125C23.3662 0.703125 20.3607 1.94802 18.1448 4.16396C15.9289 6.37989 14.684 9.38534 14.684 12.5191C14.684 15.6529 15.9289 18.6584 18.1448 20.8743C20.3607 23.0903 23.3662 24.3352 26.5 24.3352ZM26.5 29.5266C10.7898 29.5266 0.71875 38.1961 0.71875 42.4172V50.2992H52.2812V42.4172C52.2812 37.3125 42.7469 29.5266 26.5 29.5266Z" fill="#D0D5C8"/>
</svg>